<svg width="48" height="48" viewBox="0 0 48 48" fill="none" xmlns="http://www.w3.org/2000/svg">
<path d="M34.9552 24.0002C34.97 24 34.985 24 35 24C39.9706 24 44 28.0294 44 33C44 37.9706 39.9706 42 35 42H14C8.47716 42 4 37.5228 4 32C4 26.8006 7.96796 22.5282 13.0408 22.0454M34.9552 24.0002C34.9848 23.6708 35 23.3372 35 23C35 16.9249 30.0752 12 24 12C18.2465 12 13.5247 16.4172 13.0408 22.0454M34.9552 24.0002C34.7506 26.269 33.8572 28.3392 32.4856 30M13.0408 22.0454C13.3565 22.0154 13.6765 22 14 22C16.2516 22 18.3295 22.7442 20.001 24" stroke="black" stroke-width="3" stroke-linecap="round" stroke-linejoin="round"/>
<path d="M22 11.0612C21.8122 10.0941 21.4656 9.1414 20.9504 8.24026C19.7186 6.08584 17.7521 4.62694 15.5549 4C15.8945 6.7593 14.6097 9.58346 12.0752 11.0612C9.54066 12.5388 6.47628 12.2503 4.27968 10.5737C3.71878 12.8087 3.98664 15.258 5.2184 17.4124C6.88412 20.3258 9.8937 21.9678 13 22" stroke="black" stroke-width="3" stroke-linejoin="round"/>
</svg>
