<svg width="48" height="48" viewBox="0 0 48 48" fill="none" xmlns="http://www.w3.org/2000/svg">
<path d="M35.751 35.1301C34.9407 35.1319 34.1381 34.9732 33.3894 34.6633C32.6408 34.3533 31.9609 33.8982 31.389 33.3241L25.089 27.0241C24.866 26.8122 24.5701 26.6941 24.2625 26.6941C23.9549 26.6941 23.659 26.8122 23.436 27.0241L17.112 33.3481C16.5403 33.9224 15.8605 34.3777 15.1118 34.6877C14.3631 34.9977 13.5603 35.1562 12.75 35.1541H11.508L19.488 43.1341C21.978 45.6241 26.019 45.6241 28.509 43.1341L36.51 35.1301H35.751ZM12.75 12.8461C14.4 12.8461 15.948 13.4881 17.112 14.6521L23.436 20.9761C23.5447 21.085 23.6737 21.1713 23.8158 21.2302C23.9579 21.2892 24.1102 21.3195 24.264 21.3195C24.4178 21.3195 24.5701 21.2892 24.7122 21.2302C24.8543 21.1713 24.9833 21.085 25.092 20.9761L31.392 14.6761C31.9633 14.1022 32.6427 13.647 33.3908 13.3371C34.139 13.0271 34.9412 12.8684 35.751 12.8701H36.51L28.509 4.86911C27.3125 3.67339 25.6901 3.00171 23.9985 3.00171C22.3069 3.00171 20.6845 3.67339 19.488 4.86911L11.508 12.8491L12.75 12.8461Z" fill="#30B6A8"/>
<path d="M43.131 19.4881L38.295 14.6521C38.1865 14.6967 38.0704 14.7201 37.953 14.7211H35.754C34.617 14.7211 33.504 15.1831 32.703 15.9871L26.403 22.2871C26.1229 22.5687 25.7898 22.7922 25.423 22.9447C25.0561 23.0973 24.6628 23.1758 24.2655 23.1758C23.8683 23.1758 23.4749 23.0973 23.1081 22.9447C22.7413 22.7922 22.4082 22.5687 22.128 22.2871L15.804 15.9601C14.9927 15.1521 13.8951 14.6971 12.75 14.6941H10.05C9.9381 14.6932 9.82727 14.6719 9.72303 14.6311L4.86903 19.4881C2.37903 21.9781 2.37903 26.0191 4.86903 28.5121L9.72303 33.3661C9.82612 33.3246 9.93591 33.3022 10.047 33.3001H12.75C13.89 33.3001 15 32.8411 15.804 32.0371L22.125 25.7101C22.7018 25.161 23.4677 24.8547 24.264 24.8547C25.0604 24.8547 25.8263 25.161 26.403 25.7101L32.703 32.0101C33.504 32.8141 34.617 33.2731 35.754 33.2731H37.953C38.073 33.2731 38.19 33.3031 38.295 33.3451L43.131 28.5091C45.621 26.0191 45.621 21.9781 43.131 19.4881Z" fill="#30B6A8"/>
</svg>
