<svg width="48" height="48" viewBox="0 0 48 48" fill="none" xmlns="http://www.w3.org/2000/svg">
<path d="M9 24C9 17.425 9 14.1376 10.8159 11.9249C11.1484 11.5198 11.5198 11.1484 11.9249 10.8159C14.1376 9 17.425 9 24 9C30.575 9 33.8624 9 36.0752 10.8159C36.4802 11.1484 36.8516 11.5198 37.184 11.9249C39 14.1376 39 17.425 39 24C39 30.575 39 33.8624 37.184 36.0752C36.8516 36.4802 36.4802 36.8516 36.0752 37.184C33.8624 39 30.575 39 24 39C17.425 39 14.1376 39 11.9249 37.184C11.5198 36.8516 11.1484 36.4802 10.8159 36.0752C9 33.8624 9 30.575 9 24Z" stroke="#B8CEDC" stroke-width="3"/>
<path d="M18 44H30" stroke="#B8CEDC" stroke-width="3" stroke-linecap="round"/>
<path d="M18 4H30" stroke="#B8CEDC" stroke-width="3" stroke-linecap="round"/>
<path d="M18.7762 18.6628C20.6534 17.5662 22.2918 18.0081 23.276 18.712C23.6796 19.0006 23.8812 19.145 24 19.145C24.1188 19.145 24.3204 19.0006 24.724 18.712C25.7082 18.0081 27.3466 17.5662 29.2238 18.6628C31.6874 20.102 32.2448 24.85 26.5624 28.8556C25.48 29.6186 24.9388 30 24 30C23.0612 30 22.52 29.6186 21.4376 28.8556C15.7552 24.85 16.3127 20.102 18.7762 18.6628Z" stroke="#B8CEDC" stroke-width="3" stroke-linecap="round"/>
</svg>
