<svg stroke="" fill="#02c793" stroke-width="0" xmlns="http://www.w3.org/2000/svg" viewBox="0 0 24 24"
    class="text-greenseat-base" width="20" height="20">
    <path fill-rule="evenodd" clip-rule="evenodd"
        d="M11.9428 1.75H12.0572C14.2479 1.74999 15.9686 1.74998 17.312 1.93059C18.6886 2.11568 19.7809 2.50271 20.6391 3.36091C21.4973 4.21911 21.8843 5.31137 22.0694 6.68802C22.25 8.03144 22.25 9.75212 22.25 11.9428V12.0572C22.25 14.2479 22.25 15.9686 22.0694 17.312C21.8843 18.6886 21.4973 19.7809 20.6391 20.6391C19.7809 21.4973 18.6886 21.8843 17.312 22.0694C15.9686 22.25 14.2479 22.25 12.0572 22.25H11.9428C9.75212 22.25 8.03144 22.25 6.68802 22.0694C5.31137 21.8843 4.21911 21.4973 3.36091 20.6391C2.50271 19.7809 2.11568 18.6886 1.93059 17.312C1.74998 15.9686 1.74999 14.2479 1.75 12.0572V11.9428C1.74999 9.75212 1.74998 8.03144 1.93059 6.68802C2.11568 5.31137 2.50271 4.21911 3.36091 3.36091C4.21911 2.50271 5.31137 2.11568 6.68802 1.93059C8.03144 1.74998 9.75212 1.74999 11.9428 1.75ZM6.8879 3.41722C5.67757 3.57994 4.95462 3.88853 4.42157 4.42157C3.88853 4.95462 3.57994 5.67757 3.41722 6.8879C3.25159 8.1198 3.25 9.73963 3.25 12C3.25 14.2604 3.25159 15.8802 3.41722 17.1121C3.57994 18.3224 3.88853 19.0454 4.42157 19.5784C4.95462 20.1115 5.67757 20.4201 6.8879 20.5828C8.1198 20.7484 9.73963 20.75 12 20.75C14.2604 20.75 15.8802 20.7484 17.1121 20.5828C18.3224 20.4201 19.0454 20.1115 19.5784 19.5784C20.1115 19.0454 20.4201 18.3224 20.5828 17.1121C20.7484 15.8802 20.75 14.2604 20.75 12C20.75 9.73963 20.7484 8.1198 20.5828 6.8879C20.4201 5.67757 20.1115 4.95462 19.5784 4.42157C19.0454 3.88853 18.3224 3.57994 17.1121 3.41722C15.8802 3.25159 14.2604 3.25 12 3.25C9.73963 3.25 8.1198 3.25159 6.8879 3.41722ZM16.5068 8.44713C16.8121 8.72703 16.8328 9.20145 16.5529 9.50679L11.0529 15.5068C10.9146 15.6576 10.7208 15.7454 10.5163 15.7498C10.3118 15.7543 10.1143 15.675 9.96967 15.5303L7.46967 13.0303C7.17678 12.7374 7.17678 12.2626 7.46967 11.9697C7.76256 11.6768 8.23744 11.6768 8.53033 11.9697L10.4764 13.9158L15.4471 8.49321C15.727 8.18787 16.2015 8.16724 16.5068 8.44713Z"
        fill="#02c793"></path>
</svg>